<svg width="513" height="513" viewBox="0 0 513 513" fill="none" xmlns="http://www.w3.org/2000/svg">
<circle cx="256.712" cy="256.084" r="256" fill="#EFEFEF"/>
<path d="M125.593 366.664L127.772 363.612L230.867 167.994L231.085 165.923L185.638 80.5589C181.831 73.4081 171.112 75.216 169.862 83.2208L125.593 366.664Z" fill="#FFC24A"/>
<path d="M126.879 364.337L128.528 361.122L230.542 167.554L185.21 81.8424C181.442 74.7665 171.875 76.5703 170.638 84.4912L126.879 364.337Z" fill="#FFA712"/>
<path d="M264.215 230.494L298.053 195.838L264.205 131.222C260.992 125.105 252.02 125.088 248.841 131.222L230.758 165.711V168.648L264.215 230.494Z" fill="#F4BD62"/>
<path d="M263.611 229.05L296.508 195.358L263.611 132.716C260.488 126.77 252.899 126.147 249.808 132.111L231.628 167.134L231.085 168.924L263.611 229.05Z" fill="#FFA50E"/>
<path d="M125.593 366.664L126.581 365.671L130.17 364.212L262.09 232.782L263.761 228.233L230.852 165.523L125.593 366.664Z" fill="#F6820C"/>
<path d="M268.441 432.947L387.831 366.362L353.737 156.389C352.671 149.819 344.611 147.222 339.909 151.933L125.593 366.664L244.299 432.941C251.801 437.13 260.937 437.132 268.441 432.947Z" fill="#FDE068"/>
<path d="M386.762 365.803L352.927 157.424C351.868 150.905 345.166 148.207 340.5 152.881L126.917 366.256L244.319 431.877C251.764 436.034 260.831 436.036 268.278 431.883L386.762 365.803Z" fill="#FCCA3F"/>
<path d="M268.441 430.985C260.937 435.17 251.801 435.168 244.299 430.979L126.549 365.654L125.593 366.664L244.299 432.941C251.801 437.13 260.937 437.132 268.441 432.947L387.831 366.362L387.539 364.563L268.441 430.985Z" fill="#EEAB37"/>
</svg>
