<svg width="512" height="512" viewBox="0 0 512 512" fill="none" xmlns="http://www.w3.org/2000/svg">
<circle cx="256" cy="256" r="256" fill="#EFEFEF"/>
<path d="M400.131 100.57L275.209 193.351L298.31 138.611L400.131 100.57Z" fill="#E2761B" stroke="#E2761B" stroke-linecap="round" stroke-linejoin="round"/>
<path d="M111.744 100.57L235.661 194.23L213.69 138.611L111.744 100.57ZM355.184 315.636L321.913 366.609L393.1 386.195L413.564 316.766L355.184 315.636ZM98.5613 316.766L118.9 386.195L190.087 366.609L156.816 315.636L98.5613 316.766Z" fill="#E4761B" stroke="#E4761B" stroke-linecap="round" stroke-linejoin="round"/>
<path d="M186.069 229.509L166.232 259.515L236.916 262.654L234.405 186.697L186.069 229.509ZM325.805 229.509L276.841 185.818L275.209 262.654L345.768 259.515L325.805 229.509ZM190.087 366.609L232.522 345.893L195.862 317.268L190.087 366.609ZM279.352 345.893L321.913 366.609L316.012 317.268L279.352 345.893Z" fill="#E4761B" stroke="#E4761B" stroke-linecap="round" stroke-linejoin="round"/>
<path d="M321.913 366.609L279.352 345.893L282.742 373.64L282.365 385.316L321.913 366.609ZM190.087 366.609L229.635 385.316L229.384 373.64L232.522 345.893L190.087 366.609Z" fill="#D7C1B3" stroke="#D7C1B3" stroke-linecap="round" stroke-linejoin="round"/>
<path d="M230.262 298.938L194.857 288.517L219.842 277.092L230.262 298.938ZM281.612 298.938L292.033 277.092L317.142 288.517L281.612 298.938Z" fill="#233447" stroke="#233447" stroke-linecap="round" stroke-linejoin="round"/>
<path d="M190.087 366.609L196.113 315.636L156.816 316.766L190.087 366.609ZM315.887 315.636L321.913 366.609L355.184 316.766L315.887 315.636ZM345.768 259.515L275.209 262.654L281.738 298.938L292.158 277.092L317.268 288.517L345.768 259.515ZM194.858 288.517L219.967 277.092L230.262 298.938L236.917 262.654L166.232 259.515L194.858 288.517Z" fill="#CD6116" stroke="#CD6116" stroke-linecap="round" stroke-linejoin="round"/>
<path d="M166.232 259.515L195.862 317.268L194.857 288.517L166.232 259.515ZM317.268 288.517L316.012 317.268L345.768 259.515L317.268 288.517ZM236.916 262.654L230.262 298.938L238.549 341.75L240.432 285.379L236.916 262.654ZM275.209 262.654L271.819 285.253L273.326 341.75L281.738 298.938L275.209 262.654Z" fill="#E4751F" stroke="#E4751F" stroke-linecap="round" stroke-linejoin="round"/>
<path d="M281.738 298.938L273.326 341.75L279.352 345.893L316.012 317.268L317.268 288.517L281.738 298.938ZM194.857 288.517L195.862 317.268L232.522 345.893L238.549 341.75L230.262 298.938L194.857 288.517Z" fill="#F6851B" stroke="#F6851B" stroke-linecap="round" stroke-linejoin="round"/>
<path d="M282.365 385.316L282.742 373.64L279.603 370.878H232.271L229.384 373.64L229.635 385.316L190.087 366.609L203.897 377.908L231.895 397.368H279.98L308.103 377.908L321.913 366.609L282.365 385.316Z" fill="#C0AD9E" stroke="#C0AD9E" stroke-linecap="round" stroke-linejoin="round"/>
<path d="M279.352 345.893L273.326 341.75H238.549L232.523 345.893L229.384 373.64L232.271 370.878H279.603L282.742 373.64L279.352 345.893Z" fill="#161616" stroke="#161616" stroke-linecap="round" stroke-linejoin="round"/>
<path d="M405.404 199.377L416.075 148.153L400.13 100.57L279.352 190.212L325.805 229.509L391.468 248.718L406.031 231.769L399.754 227.249L409.798 218.084L402.014 212.058L412.058 204.399L405.404 199.377ZM95.9246 148.153L106.596 199.377L99.8166 204.399L109.861 212.058L102.202 218.084L112.246 227.249L105.969 231.769L120.407 248.718L186.069 229.509L232.522 190.212L111.744 100.57L95.9246 148.153Z" fill="#763D16" stroke="#763D16" stroke-linecap="round" stroke-linejoin="round"/>
<path d="M391.468 248.718L325.805 229.509L345.768 259.515L316.013 317.268L355.184 316.766H413.564L391.468 248.718ZM186.069 229.509L120.407 248.718L98.5613 316.766H156.816L195.862 317.268L166.232 259.515L186.069 229.509ZM275.209 262.654L279.352 190.212L298.436 138.611H213.69L232.522 190.212L236.917 262.654L238.423 285.504L238.549 341.75H273.326L273.577 285.504L275.209 262.654Z" fill="#F6851B" stroke="#F6851B" stroke-linecap="round" stroke-linejoin="round"/>
</svg>
