<svg width="510" height="510" viewBox="0 0 510 510" fill="none" xmlns="http://www.w3.org/2000/svg">
<path d="M254.981 0.748779C395.381 0.748779 509.182 114.549 509.182 254.949C509.182 395.349 395.382 509.049 255.081 509.049C114.682 509.049 0.981511 395.249 0.981511 254.949C0.881511 114.549 114.681 0.748779 254.981 0.748779Z" fill="#8247E5"/>
<mask id="mask0_25_47" style="mask-type:luminance" maskUnits="userSpaceOnUse" x="86" y="110" width="334" height="293">
<path d="M419.781 110.649H86.6814V402.549H419.781V110.649Z" fill="white"/>
</mask>
<g mask="url(#mask0_25_47)">
<path d="M338.281 199.549C332.181 196.049 324.381 196.049 317.481 199.549L268.882 228.349L235.882 246.649L188.181 275.349C182.081 278.849 174.282 278.849 167.382 275.349L130.081 252.649C123.981 249.149 119.681 242.149 119.681 234.349V190.749C119.681 183.749 123.181 176.849 130.081 172.449L167.382 150.649C173.482 147.149 181.281 147.149 188.181 150.649L225.481 173.349C231.581 176.849 235.882 183.849 235.882 191.649V220.449L268.882 201.249V171.649C268.882 164.649 265.381 157.749 258.481 153.349L189.081 112.349C182.981 108.849 175.181 108.849 168.281 112.349L97.1815 154.249C90.2815 157.749 86.7815 164.749 86.7815 171.649V253.549C86.7815 260.549 90.2815 267.449 97.1815 271.849L167.481 312.849C173.581 316.349 181.381 316.349 188.281 312.849L235.981 284.949L268.981 265.749L316.681 237.849C322.781 234.349 330.581 234.349 337.481 237.849L374.781 259.649C380.881 263.149 385.181 270.149 385.181 277.949V321.549C385.181 328.549 381.681 335.449 374.781 339.849L338.382 361.649C332.282 365.149 324.481 365.149 317.581 361.649L280.181 339.849C274.081 336.349 269.781 329.349 269.781 321.549V293.649L236.781 312.849V341.649C236.781 348.649 240.281 355.549 247.181 359.949L317.481 400.949C323.581 404.449 331.381 404.449 338.281 400.949L408.582 359.949C414.682 356.449 418.981 349.449 418.981 341.649V258.849C418.981 251.849 415.482 244.949 408.582 240.549L338.281 199.549Z" fill="white"/>
</g>
</svg>
