<svg width="651" height="643" viewBox="0 0 651 643" fill="none" xmlns="http://www.w3.org/2000/svg">
<path d="M324.5 642.9C499.74 642.9 641.8 499.183 641.8 321.9C641.8 144.617 499.74 0.899902 324.5 0.899902C149.26 0.899902 7.2002 144.617 7.2002 321.9C7.2002 499.183 149.26 642.9 324.5 642.9Z" fill="#5E464D"/>
<path d="M224.7 606.5C237.7 610.9 281.3 625.1 283.1 611.2C284.1 603.6 261.1 595.8 230 579.3C185.7 555.9 145.2 526 109.8 490.5C58.1001 439.9 28.4001 371 27.1001 298.6C24.5001 201.5 62.4001 123 124.9 72.2998C48.5001 131.4 2.80014 221.6 0.400138 318C-1.49986 388.2 18.2001 447.4 55.1001 501.3C66.6001 516.1 79.9001 529.3 94.9001 540.5C130.2 567.2 181.9 592 224.7 606.5Z" fill="white"/>
<path d="M646.1 248.3C626.4 155.8 565.3 91 483.5 45.3C545.9 89.8 634.1 184.5 582.2 268C538.2 334.9 431.2 321.8 372.8 290C303.3 252.3 216.2 167.4 302.1 84.5C357.7 30.8 534.6 91 503.5 171.2C485.3 217.9 414.6 207.5 382.8 184.7C359.4 167.9 339.6 138.9 350.1 109C353.5 99.4 353 84.6 339.4 95.5C329.3 103.7 324.2 117.1 322.5 129.6C307.7 234.2 494.1 315.3 549.3 214.1C578 161.6 531.5 85.3 473 54C429 30.4 383.2 13.9 327.1 17.9C237.4 24.2 162 80.4 152.6 172.1C143.2 263.2 204.1 345.2 275.8 394.3C351.2 445.8 452.6 479.8 545.4 449.1C628.5 421.7 662.8 326.2 646.1 248.3Z" fill="white"/>
<path d="M529.1 177.5C538 117.5 483.8 76.3998 433.8 57.6998C374.8 35.6998 296.8 45.2998 253.8 94.1998C222.4 130.1 224.4 182.2 240.6 224.4C265.1 288 320.5 334 384.9 353.9C430.7 368 486 374.2 532.4 359.3C600.1 337.5 622.1 267 608.1 202.3C605.1 188.3 600.5 174.7 594.4 161.8C585.9 143.9 559.8 107.5 595.8 151.8C599.6 156.7 603.1 161.9 606.2 167.2C613.6 179.4 619.5 192.5 623.8 206.2C643.5 266.5 628 336.9 573.5 373.3C531.7 401.2 478.5 404.5 430 397.5C365 388.1 303.6 356.6 261 306.1C222.1 260 195.5 193.8 211.5 133.3C223.2 88.9998 259.2 55.9998 302.2 42.1998C356.7 24.5998 416.6 32.7998 465.6 61.3998C490.2 75.6998 512.7 95.4998 525.1 121.5C530.8 133.2 533.8 146 534.1 159C534.2 164.3 533.8 169.5 532.9 174.7C532.6 176.6 528.6 181.9 529.1 177.5Z" fill="#3FE0C5"/>
</svg>
